<svg xmlns="http://www.w3.org/2000/svg" width="72" height="64" viewBox="0 0 72 64"><path d="M14 8H2c-1.1 0-2 .9-2 2v44c0 1.1.9 2 2 2h12c1.1 0 2-.9 2-2V10c0-1.1-.9-2-2-2zm-2 12H4v-4h8v4zM34 8H22c-1.1 0-2 .9-2 2v44c0 1.1.9 2 2 2h12c1.1 0 2-.9 2-2V10c0-1.1-.9-2-2-2zm-2 12h-8v-4h8v4z"/><path d="M47.818 11.092l-10.716 5.4c-.982.495-1.38 1.704-.886 2.686l18 35.722c.494.982 1.703 1.38 2.685.886l10.718-5.4c.982-.495 1.38-1.704.886-2.686l-18-35.722c-.494-.982-1.703-1.38-2.685-.886z"/><path d="M58 54c0 1.105-.895 2-2 2s-2-.895-2-2 .895-2 2-2 2 .895 2 2z"/></svg>