<svg xmlns="http://www.w3.org/2000/svg" width="72" height="64" viewBox="0 0 72 64"><path d="M48 48.163v-3.3c4.406-2.482 8-8.672 8-14.863 0-9.94 0-18-12-18s-12 8.06-12 18c0 6.19 3.594 12.382 8 14.864v3.3C26.43 49.27 16 55.938 16 64h56c0-8.06-10.43-14.727-24-15.837z"/><path d="M20.45 49.708c3.457-2.26 7.755-3.977 12.487-5.026-.94-1.11-1.794-2.35-2.53-3.69C28.504 37.543 27.5 33.74 27.5 30c0-5.378 0-10.457 1.913-14.61 1.857-4.032 5.196-6.53 9.95-7.468C38.308 3.142 35.494 0 28 0 16 0 16 8.06 16 18c0 6.19 3.594 12.382 8 14.864v3.3C10.43 37.27 0 43.938 0 52h17.438c.907-.807 1.912-1.573 3.012-2.292z"/></svg>